<?xml version="1.0" encoding="utf-8"?>
<!-- Generator: Adobe Illustrator 15.0.2, SVG Export Plug-In . SVG Version: 6.00 Build 0)  -->
<!DOCTYPE svg PUBLIC "-//W3C//DTD SVG 1.1//EN" "http://www.w3.org/Graphics/SVG/1.1/DTD/svg11.dtd">
<svg version="1.1"
	 id="svg1936" sodipodi:docname="Amazon MP3.svg" inkscape:version="0.91 r13725" xmlns:dc="http://purl.org/dc/elements/1.1/" xmlns:cc="http://creativecommons.org/ns#" xmlns:rdf="http://www.w3.org/1999/02/22-rdf-syntax-ns#" xmlns:svg="http://www.w3.org/2000/svg" xmlns:sodipodi="http://sodipodi.sourceforge.net/DTD/sodipodi-0.dtd" xmlns:inkscape="http://www.inkscape.org/namespaces/inkscape"
	 xmlns="http://www.w3.org/2000/svg" xmlns:xlink="http://www.w3.org/1999/xlink" x="0px" y="0px" width="602.281px"
	 height="181.5px" viewBox="-0.001 110.253 602.281 181.5" enable-background="new -0.001 110.253 602.281 181.5"
	 xml:space="preserve">
<sodipodi:namedview  inkscape:pageopacity="0" guidetolerance="10" bordercolor="#666666" objecttolerance="10" id="namedview6647" pagecolor="#ffffff" gridtolerance="10" borderopacity="1" inkscape:window-y="-8" inkscape:window-width="1366" inkscape:zoom="0.84997097" inkscape:cy="177.19815" fit-margin-left="0" fit-margin-top="0" inkscape:window-x="-8" inkscape:pageshadow="2" showgrid="false" fit-margin-bottom="0" inkscape:cx="487.0018" fit-margin-right="0" inkscape:window-height="705" inkscape:window-maximized="1" inkscape:current-layer="g1967">
	</sodipodi:namedview>
<g id="layer1" transform="translate(144.53434,-539.62422)">
	<g id="g1967" transform="translate(7.081691,7.081144)">
		<path id="path8" inkscape:connector-curvature="0" d="M222.027,784.734c-35,25.798-85.729,39.562-129.405,39.562
			c-61.243,0-116.377-22.651-158.088-60.326c-3.277-2.961-0.341-7,3.592-4.691c45.014,26.189,100.673,41.947,158.166,41.947
			c38.775,0,81.43-8.021,120.649-24.672C222.865,774.039,227.819,780.435,222.027,784.734"/>
		<path id="path10" inkscape:connector-curvature="0" d="M236.577,768.088c-4.457-5.717-29.573-2.701-40.848-1.363
			c-3.435,0.419-3.958-2.57-0.864-4.721c20.004-14.078,52.826-10.015,56.654-5.295c3.827,4.744-0.996,37.646-19.794,53.352
			c-2.884,2.412-5.637,1.127-4.353-2.071C231.596,797.449,241.06,773.828,236.577,768.088"/>
		<path id="path12" inkscape:connector-curvature="0" d="M196.518,662.616v-13.685c0-2.071,1.573-3.461,3.46-3.461h61.271
			c1.966,0,3.539,1.416,3.539,3.461v11.719c-0.026,1.966-1.679,4.536-4.614,8.6l-31.749,45.328
			c11.798-0.287,24.251,1.469,34.947,7.498c2.412,1.363,3.066,3.355,3.251,5.322v14.604c0,1.992-2.202,4.326-4.509,3.119
			c-18.852-9.884-43.889-10.959-64.73,0.105c-2.124,1.152-4.353-1.154-4.353-3.146v-13.869c0-2.229,0.025-6.029,2.255-9.412
			l36.781-52.748h-32.011C198.09,666.05,196.518,664.662,196.518,662.616"/>
		<path id="path14" inkscape:connector-curvature="0" d="M-26.981,748.004h-18.64c-1.783-0.131-3.198-1.467-3.33-3.172v-95.666
			c0-1.914,1.6-3.434,3.592-3.434h17.382c1.809,0.078,3.251,1.468,3.382,3.197v12.506h0.341
			c4.536-12.086,13.056-17.723,24.539-17.723c11.667,0,18.955,5.637,24.198,17.723c4.509-12.086,14.76-17.723,25.745-17.723
			c7.812,0,16.359,3.225,21.576,10.459c5.899,8.049,4.693,19.742,4.693,29.992l-0.026,60.379c0,1.912-1.599,3.459-3.591,3.459
			H54.265c-1.861-0.131-3.355-1.625-3.355-3.459v-50.703c0-4.037,0.367-14.104-0.524-17.932c-1.39-6.423-5.558-8.232-10.959-8.232
			c-4.509,0-9.228,3.016-11.142,7.84c-1.914,4.824-1.73,12.898-1.73,18.324v50.705c0,1.912-1.6,3.459-3.592,3.459H4.348
			c-1.888-0.131-3.355-1.625-3.355-3.459l-0.027-50.705c0-10.67,1.756-26.373-11.483-26.373c-13.397,0-12.873,15.311-12.873,26.373
			v50.705C-23.389,746.457-24.989,748.004-26.981,748.004"/>
		<path id="path16" inkscape:connector-curvature="0" d="M317.534,643.714c27.658,0,42.629,23.752,42.629,53.955
			c0,29.178-16.543,52.328-42.629,52.328c-27.16,0-41.947-23.752-41.947-53.352C275.587,666.863,290.558,643.714,317.534,643.714
			 M317.692,663.246c-13.736,0-14.603,18.719-14.603,30.385c0,11.692-0.184,36.65,14.445,36.65
			c14.444,0,15.127-20.134,15.127-32.402c0-8.076-0.342-17.724-2.779-25.379C327.785,665.839,323.616,663.246,317.692,663.246"/>
		<path id="path18" inkscape:connector-curvature="0" d="M396.028,748.004h-18.562c-1.861-0.131-3.355-1.625-3.355-3.459
			l-0.025-95.692c0.157-1.757,1.704-3.12,3.592-3.12h17.276c1.626,0.078,2.963,1.18,3.33,2.674v14.629h0.341
			c5.217-13.082,12.531-19.322,25.404-19.322c8.361,0,16.517,3.016,21.76,11.273c4.876,7.655,4.876,20.527,4.876,29.782v60.221
			c-0.209,1.679-1.756,3.015-3.592,3.015H428.38c-1.704-0.131-3.12-1.39-3.304-3.015v-51.962c0-10.46,1.206-25.771-11.666-25.771
			c-4.535,0-8.704,3.041-10.775,7.656c-2.621,5.846-2.962,11.666-2.962,18.115v51.518
			C399.646,746.457,398.02,748.004,396.028,748.004"/>
		<path d="M180.866,730.466c-3.408-4.721-7.026-8.547-7.026-17.277V684.14c0-12.295,0.865-23.596-8.206-32.062
			c-7.157-6.869-19.007-9.281-28.078-9.281c-17.723,0-37.542,6.605-41.685,28.523c-0.445,2.333,1.259,3.564,2.779,3.906
			l18.063,1.939c1.704-0.078,2.936-1.729,3.25-3.408c1.547-7.549,7.865-11.193,14.97-11.193c3.854,0,8.206,1.416,10.46,4.85
			c2.622,3.828,2.281,9.071,2.281,13.502v2.411c-10.801,1.231-24.932,2.019-35.052,6.476c-11.693,5.035-19.873,15.338-19.873,30.465
			c0,19.375,12.191,29.049,27.895,29.049c13.24,0,20.502-3.12,30.727-13.555c3.382,4.901,4.509,7.289,10.695,12.427
			c1.391,0.733,3.173,0.655,4.404-0.445l0.026,0.052c3.723-3.303,10.486-9.201,14.288-12.373
			C182.308,734.162,182.046,732.144,180.866,730.466z M144.189,722.075c-2.962,5.244-7.682,8.47-12.899,8.47
			c-7.157,0-11.352-5.453-11.352-13.502c0-15.888,14.236-18.771,27.737-18.771v4.037
			C147.675,709.57,147.859,715.627,144.189,722.075z"/>
		<path d="M-63.501,730.466c-3.408-4.721-7.026-8.547-7.026-17.277V684.14c0-12.295,0.865-23.596-8.206-32.062
			c-7.157-6.869-19.007-9.281-28.078-9.281c-17.723,0-37.517,6.605-41.685,28.523c-0.419,2.333,1.259,3.564,2.779,3.906
			l18.089,1.939c1.678-0.078,2.91-1.729,3.225-3.408c1.547-7.549,7.892-11.193,14.996-11.193c3.828,0,8.18,1.416,10.46,4.85
			c2.596,3.828,2.255,9.071,2.255,13.502v2.411c-10.801,1.231-24.932,2.019-35.052,6.476c-11.667,5.035-19.873,15.338-19.873,30.465
			c0,19.375,12.217,29.049,27.895,29.049c13.266,0,20.502-3.12,30.727-13.555c3.408,4.901,4.509,7.289,10.696,12.427
			c1.39,0.733,3.172,0.655,4.404-0.445l0.053,0.052c3.723-3.303,10.486-9.201,14.288-12.373
			C-62.033,734.162-62.295,732.144-63.501,730.466z M-100.179,722.075c-2.962,5.244-7.655,8.47-12.899,8.47
			c-7.157,0-11.326-5.453-11.326-13.502c0-15.888,14.236-18.771,27.711-18.771v4.037C-96.692,709.57-96.508,715.627-100.179,722.075
			z"/>
	</g>
</g>
</svg>
