<?xml version="1.0" encoding="utf-8"?>
<!-- Generator: Adobe Illustrator 15.0.2, SVG Export Plug-In . SVG Version: 6.00 Build 0)  -->
<!DOCTYPE svg PUBLIC "-//W3C//DTD SVG 1.1//EN" "http://www.w3.org/Graphics/SVG/1.1/DTD/svg11.dtd">
<svg version="1.1" id="Layer_1" xmlns="http://www.w3.org/2000/svg" xmlns:xlink="http://www.w3.org/1999/xlink" x="0px" y="0px"
	 width="2500px" height="789px" viewBox="0 0 2500 789" enable-background="new 0 0 2500 789" xml:space="preserve">
<path d="M2471.529,489.92c-15.418-0.05-27.973,12.383-28.072,27.803c0,15.512,12.576,28.087,28.088,28.087
	s28.088-12.575,28.088-28.087C2499.518,502.298,2486.955,489.869,2471.529,489.92z M2471.56,542.556
	c-13.64,0.476-25.084-10.197-25.56-23.838c-0.475-13.64,10.197-25.084,23.838-25.559c0.574-0.021,1.148-0.021,1.722,0
	c13.767,0,24.833,11.066,24.833,24.563C2496.393,531.488,2485.326,542.556,2471.56,542.556z M2261.855,438.094
	c38.6,0,79.898-23.214,133.345-64.513c6.328-4.918,12.417-10.017,18.265-15.146l52.457,70.751h29.392l-64.872-86.467
	c34.16-33.231,55.965-64.153,55.965-64.153l-17.006-9.717c-17.018,18.959-34.828,37.19-53.386,54.646
	c-40.04-53.266-84.397-112.23-105.122-139.493c42.469-30.142,79.719-60.764,79.719-99.244c0-40.759-31.312-80.438-74.23-80.438
	c-42.648,0-80.979,35.091-80.979,79.089c0,43.729,43.309,93.245,43.309,93.245c-9.237,5.878-19.494,12.447-30.892,20.125
	c-46.968,31.312-95.284,65.323-95.284,137.394C2152.535,406.242,2222.986,438.094,2261.855,438.094z M2260.717,87.997
	c0-19.165,9.687-57.225,52.635-57.225c42.648,0,51.017,41.299,51.017,53.985c0,12.957-3.239,25.913-22.674,46.428
	c-11.577,12.177-25.733,21.804-44.987,34.041C2271.633,130.585,2260.746,105.302,2260.717,87.997z M2225.115,244.015
	c18.805-14.306,29.962-21.145,68.143-47.688l105.691,142.552c-60.314,52.516-107.191,72.49-140.902,72.461
	c-45.889,0-80.979-39.92-80.979-84.218C2177.068,282.885,2205.141,259.641,2225.115,244.015z M1105.993,479.662
	c-130.646,0-236.997,69.372-236.997,154.669c0,85.027,106.352,154.669,236.997,154.669c130.105,0,236.728-69.642,236.728-154.669
	C1342.721,549.034,1236.099,479.662,1105.993,479.662z M1105.993,693.445c-44.538,0-80.979-26.723-80.979-59.114
	c0-32.661,36.44-59.114,80.979-59.114s80.709,26.453,80.709,59.114C1186.702,666.723,1150.531,693.445,1105.993,693.445z
	 M1222.332,429.186l55.336-138.203h180.582l55.875,138.203h26.723L1367.554,0l-172.484,429.186H1222.332z M1367.554,65.862
	l80.979,201.097h-161.417L1367.554,65.862z M222.519,633.252c47.237-15.926,42.378-70.452,42.378-70.452
	c0-79.358-119.578-76.119-119.578-76.119H0.368v299.351h157.908c68.292,0,123.087-25.913,123.087-81.519
	S222.519,633.252,222.519,633.252z M109.688,558.481h28.342c30.232,0,30.232,45.348,0,45.348h-28.342V558.481z M142.08,715.579
	h-32.392v-49.396h32.392C184.458,666.183,184.458,715.579,142.08,715.579z M241.144,313.117c0-87.187-82.868-103.922-82.868-103.922
	c52.096-28.073,45.888-94.205,45.888-94.205C200.114,14.036,98.622,14.036,98.622,14.036H3.876v415.149h104.462
	C170.692,429.186,241.144,401.113,241.144,313.117z M27.09,39.41h69.642c109.591,0,109.861,163.306,0,163.306H27.09V39.41z
	 M27.9,229.439h92.315c130.375,0,126.866,173.833-3.509,173.833H27.9V229.439z M1213.425,313.117
	c0-87.187-82.328-103.922-82.328-103.922c51.826-28.073,45.888-94.205,45.888-94.205
	c-4.318-100.953-105.812-100.953-105.812-100.953h-94.476v415.149h104.463C1143.514,429.186,1213.425,401.113,1213.425,313.117z
	 M999.911,39.41h69.642c109.591,0,109.861,163.306,0,163.306h-69.642V39.41z M1000.451,229.439h92.586
	c130.105,0,126.596,173.833-3.51,173.833h-89.076V229.439z M608.516,14.036h-94.205v415.149h87.997
	C880.063,429.186,874.125,14.036,608.516,14.036z M542.083,39.949h62.624c237.807,0,234.297,362.514,0,362.514h-62.624V39.949z
	 M2140.088,486.681h-306.639v299.351h306.639C2594.646,786.031,2594.646,486.681,2140.088,486.681z M2106.617,695.335h-32.121
	V579.806h32.121C2280.99,579.806,2280.99,695.335,2106.617,695.335z M2480.737,517.183c2.97-2.43,4.05-3.779,4.05-7.828
	c-0.541-7.019-5.129-7.828-9.988-7.828h-13.766v30.771h4.049v-13.226h10.257c6.208,0,4.589,5.668,5.128,9.447l0.541,3.778h4.858
	c-1.62-2.699-1.08-3.238-1.35-7.288C2483.977,519.611,2483.707,519.072,2480.737,517.183z M2475.068,515.562h-9.986v-10.527h9.986
	c2.43,0,6.209,0.54,5.669,5.938C2480.197,515.023,2477.769,515.562,2475.068,515.562z M1652.898,486.681h158.178v299.351h-158.748
	l-144.172-152.779c-7.828-8.639-15.926-6.479-10.527,6.478c5.129,12.687,7.828,39.949,7.828,39.949v106.353h-157.638V486.681h0.029
	h161.147l142.792,158.987c7.828,8.368,15.926,6.209,10.558-6.479c-5.398-12.956-9.447-39.949-9.447-39.949V486.681z
	 M950.755,486.681L811.502,658.625v127.406H670.329V654.306L539.654,498.287v69.642H429.823v29.423h100.953v76.929H429.823v30.502
	h115.26v81.249H300.258V486.681h394.905l46.697,84.757l44.538-84.757H950.755z M1748.422,429.186h-24.023V14.036h24.023V188.95
	h253.193V14.036h24.023v415.149h-24.023V214.863h-253.193V429.186z M1566.491,37.52H1459.06V14.036h239.156V37.52h-107.701v391.666
	h-24.023V37.52z M471.122,429.186H273.265V14.036h197.857v25.913H298.638v150.89h167.625v24.023H298.638v188.68h172.484V429.186z"/>
</svg>
