<?xml version="1.0" encoding="utf-8"?>
<!-- Generator: Adobe Illustrator 18.1.1, SVG Export Plug-In . SVG Version: 6.00 Build 0)  -->
<!DOCTYPE svg PUBLIC "-//W3C//DTD SVG 1.1//EN" "http://www.w3.org/Graphics/SVG/1.1/DTD/svg11.dtd">
<svg version="1.1" id="Layer_1" width="500" xmlns="http://www.w3.org/2000/svg" xmlns:xlink="http://www.w3.org/1999/xlink" x="0px" y="0px"
	 viewBox="0 0 551.9 172" enable-background="new 0 0 551.9 172" xml:space="preserve">
<g>
	<path fill="#1A1A1A" d="M225.2,28.9v68.4c0,4.4,0,7.5,0.1,9.3c0,1.8,0.4,4.4,1.2,7.8c0.7,3.4,1.9,6.2,3.4,8.5c2.2,3.3,5.3,6,9.3,8
		c4,2,8,3,12,3c3.8,0,7.6-0.9,11.4-2.7c3.8-1.8,6.9-4.3,9.3-7.5c1.6-2.1,2.8-4.7,3.6-7.8c0.8-3.1,1.3-5.7,1.4-7.8
		c0.1-2.1,0.1-5.1,0.1-8.9v-1.8V28.9h11.8v71.9c0,7.3-0.6,13.4-1.8,18.1c-1.2,4.8-3.7,9.3-7.5,13.7c-7.5,8.7-17,13.1-28.5,13.1
		c-10.8,0-20-3.9-27.3-11.7c-4.2-4.4-7-9.1-8.3-14.2c-1.4-5.1-2-11.4-2-19V28.9H225.2z"/>
	<path fill="#1A1A1A" d="M520.9,52.7c-9.1-9.3-20.3-13.9-33.4-13.9c-13.1,0-24.2,4.6-33.4,13.9c-9.1,9.3-13.7,20.5-13.7,33.6
		c0,13,4.6,24.2,13.8,33.5c9.2,9.3,20.3,14,33.3,14c13,0,24.1-4.7,33.3-14c9.2-9.3,13.8-20.5,13.8-33.5
		C534.6,73.2,530.1,62,520.9,52.7 M445.3,44.3c11.7-11.6,25.8-17.4,42.3-17.4c16.5,0,30.5,5.8,42.3,17.4
		C541.6,56,547.4,70,547.4,86.5c0,16.5-5.9,30.4-17.6,42c-11.7,11.5-25.8,17.3-42.3,17.3c-16.5,0-30.5-5.8-42.3-17.3
		c-11.7-11.5-17.6-25.5-17.6-42C427.7,70,433.6,56,445.3,44.3"/>
	<path fill="#1A1A1A" d="M206.6,123.6c-8.7,6.8-18.4,10.3-29,10.3c-12.8,0-23.8-4.7-32.9-14.2c-9.1-9.4-13.7-20.6-13.7-33.4
		c0-12.8,4.5-23.9,13.6-33.4c9.1-9.4,20-14.2,32.7-14.2c11,0,20.8,3.4,29.3,10.2V34.5c-8.6-5-18.1-7.6-28.6-7.6
		c-16.5,0-30.5,5.9-42.3,17.6c-11.7,11.7-17.6,25.8-17.6,42.3c0,16.2,5.9,30.1,17.7,41.7c11.8,11.5,25.9,17.3,42.1,17.3
		c10.2,0,19.8-2.6,28.6-7.6V123.6z"/>
	<path fill="#1A1A1A" d="M433,123.6c-8.7,6.8-18.4,10.3-29,10.3c-12.8,0-23.8-4.7-32.9-14.2c-9.1-9.4-13.7-20.6-13.7-33.4
		c0-12.8,4.5-23.9,13.6-33.4c9.1-9.4,20-14.2,32.7-14.2c11,0,20.8,3.4,29.3,10.2V34.5c-8.6-5-18.1-7.6-28.6-7.6
		c-16.5,0-30.5,5.9-42.3,17.6c-11.7,11.7-17.6,25.8-17.6,42.3c0,16.2,5.9,30.1,17.7,41.7c11.8,11.5,25.9,17.3,42.1,17.3
		c10.2,0,19.8-2.6,28.6-7.6V123.6z"/>
	<polygon fill="#1A1A1A" points="357.7,28.9 293.9,28.9 293.9,40.8 319.2,40.8 319.2,143.7 332,143.7 332,40.8 357.7,40.8 	"/>
	<polygon fill="#003E6A" points="41.9,13.7 37,22.2 77.8,86 36.9,149.8 41.9,158.3 88.2,86 	"/>
	<path fill="#003E6A" d="M45.6,164.8L45.6,164.8L45.6,164.8L45.6,164.8z M49.8,0l-4.2,7.2L96.2,86l-50.5,78.8l4.2,7.2L105,86L49.8,0
		z"/>
	<polygon fill="#003E6A" points="0,86 33.1,143.1 69.7,86 33.1,28.9 	"/>
	<path fill="#1A1A1A" d="M541.8,136.8h0.9c1.1,0,2-0.4,2-1.3c0-0.8-0.6-1.3-1.8-1.3c-0.5,0-0.9,0.1-1.1,0.1V136.8z M541.8,141.6h-2
		V133c0.8-0.1,1.9-0.3,3.3-0.3c1.6,0,2.3,0.3,2.9,0.7c0.5,0.4,0.9,1,0.9,1.8c0,1-0.8,1.7-1.8,2v0.1c0.8,0.3,1.3,0.9,1.5,2.1
		c0.3,1.3,0.5,1.8,0.6,2.1h-2.1c-0.3-0.3-0.4-1-0.7-2.1c-0.1-0.9-0.7-1.3-1.8-1.3h-0.9V141.6z M536.5,137.1c0,3.8,2.9,6.8,6.7,6.8
		c3.7,0.1,6.5-3,6.5-6.8c0-3.8-2.8-6.9-6.6-6.9C539.4,130.3,536.5,133.4,536.5,137.1 M551.9,137.1c0,4.8-3.9,8.6-8.7,8.6
		c-4.9,0-8.8-3.8-8.8-8.6c0-4.8,3.9-8.5,8.9-8.5C548,128.6,551.9,132.3,551.9,137.1"/>
</g>
</svg>
