<?xml version="1.0" encoding="utf-8"?>
<!-- Generator: Adobe Illustrator 15.0.2, SVG Export Plug-In . SVG Version: 6.00 Build 0)  -->
<!DOCTYPE svg PUBLIC "-//W3C//DTD SVG 1.1//EN" "http://www.w3.org/Graphics/SVG/1.1/DTD/svg11.dtd">
<svg version="1.1" id="layer" xmlns="http://www.w3.org/2000/svg" xmlns:xlink="http://www.w3.org/1999/xlink" x="0px" y="0px"
	 width="1199.386px" height="766.871px" viewBox="-101.227 116.718 1199.386 766.871"
	 enable-background="new -101.227 116.718 1199.386 766.871" xml:space="preserve">
<g>
	<path d="M876.994,732.209h-94.479c-19.479-1.688-36.656,12.729-38.344,32.055c-0.153,1.381-0.153,2.607-0.153,3.988v36.043
		c0,19.479,15.797,35.275,35.276,35.429c0.307,0,0.46,0,0.767,0h94.479c19.479,0,35.276-15.797,35.276-35.275l0,0v-36.043
		c0.459-19.479-15.031-35.736-34.51-36.043c-0.46,0-1.073,0-1.533,0h3.221V732.209z M880.062,804.448
		c0,1.687-1.381,3.067-3.067,3.067h-94.479c-1.534,0.92-3.375,0.307-4.142-1.074c-0.153-0.307-0.307-0.767-0.46-1.227v-36.81
		c0-2.301,1.534-3.067,3.834-3.067h94.479c1.534,0,3.068,0,3.068,3.067v36.043H880.062z M718.712,765.951
		c-1.534-1.534-3.067-1.534-3.835,0l-10.736,17.638c-0.767,1.381-0.767,3.221,0,4.602l10.736,18.404h3.067l10.736-18.404
		c0.768-1.381,0.768-3.221,0-4.602l-10.736-17.638 M1063.65,732.209H931.441v151.38h32.209v-43.865h99.847
		c19.172-0.46,34.509-16.104,34.509-35.275v-36.043C1098.773,748.773,1083.282,732.669,1063.65,732.209L1063.65,732.209z
		 M1065.951,804.448c0,1.687-1.228,3.067-2.914,3.221c-0.307,0-0.614,0-0.921-0.153H962.27v-41.564h99.847
		c1.534,0,3.067,0,3.067,3.067v36.196L1065.951,804.448z M984.51,699.233h90.644c12.116,0,22.239-9.356,23.006-21.473V404.908
		H984.51V699.233 M346.779,768.252v36.043c0,19.479,15.797,35.275,35.275,35.429c0.308,0,0.461,0,0.768,0H500.46v-32.976H382.822
		c-1.074-0.307-1.994-1.227-2.301-2.3v-36.043c0-2.301,0-3.067,3.067-3.067h117.638v-32.976H382.822
		c-19.479,0-35.276,15.797-35.43,35.275c0,0.307,0,0.46,0,0.768 M724.08,699.233h215.184V637.73H813.19v-53.835h126.073v-63.037
		H813.19v-53.834h126.073v-61.503h-238.19v270.552C701.073,688.804,711.35,699.233,724.08,699.233"/>
	<path d="M347.546,497.086v202.147h113.65v-76.841h34.509l53.835,76.841h125.307l-64.57-95.246l44.632-44.632V405.675H542.024
		l-80.675,40.03v-29.141c0-6.135-5.368-11.503-12.27-11.503h-30.675l175.92-235.89l211.35,188.19L913.19,239.724l138.343,117.638
		h46.166L913.037,194.325L790.03,296.473L608.742,138.19l-23.006-21.473L206.135,494.785l-43.711-89.877h36.043L87.117,194.325
		L-22.086,404.908h34.663l-73.773,148.312h46.166l-86.196,178.221l408.743,107.516L226.84,656.901l120.706-161.35V497.086z
		 M461.196,510.123l80.675-41.564v84.509h-80.675C461.196,553.221,461.196,510.123,461.196,510.123z"/>
	<path d="M651.841,732.209h-96.779c-19.172,0.767-34.202,16.871-33.742,36.043v36.043c0,19.172,15.337,34.969,34.509,35.275h96.013
		c19.172-0.46,34.509-16.104,34.509-35.275v-36.043C686.81,748.773,671.319,732.669,651.841,732.209c-0.308,0-0.46,0-0.768,0
		H651.841z M654.141,804.448c0,1.687-1.38,3.067-3.067,3.067l0,0h-96.012c-1.381,0-2.761-0.921-3.067-2.301v-36.81
		c0-2.301,2.301-3.067,3.834-3.067h96.013c0,0,2.3,0,2.3,3.067C654.141,768.252,654.141,804.448,654.141,804.448z"/>
</g>
</svg>
