<?xml version="1.0" encoding="utf-8"?>
<!-- Generator: Adobe Illustrator 15.0.2, SVG Export Plug-In . SVG Version: 6.00 Build 0)  -->
<!DOCTYPE svg PUBLIC "-//W3C//DTD SVG 1.1//EN" "http://www.w3.org/Graphics/SVG/1.1/DTD/svg11.dtd">
<svg version="1.1" id="Layer_1" xmlns="http://www.w3.org/2000/svg" xmlns:xlink="http://www.w3.org/1999/xlink" x="0px" y="0px"
	 width="500px" height="155.826px" viewBox="0 422.087 500 155.826" enable-background="new 0 422.087 500 155.826"
	 xml:space="preserve">
<g>
	<path fill="#1A1A1A" d="M204.022,448.27v61.968c0,3.986,0,6.795,0.091,8.426c0,1.631,0.362,3.986,1.087,7.066
		c0.634,3.08,1.721,5.617,3.08,7.7c1.993,2.99,4.802,5.437,8.426,7.248c3.624,1.812,7.248,2.718,10.872,2.718
		c3.442,0,6.885-0.815,10.328-2.446c3.443-1.631,6.251-3.896,8.426-6.795c1.449-1.902,2.537-4.258,3.261-7.066
		s1.177-5.164,1.269-7.066c0.09-1.902,0.09-4.62,0.09-8.062v-1.631V448.27h10.69v65.139c0,6.613-0.544,12.14-1.631,16.397
		c-1.087,4.349-3.353,8.426-6.794,12.412c-6.795,7.882-15.402,11.868-25.82,11.868c-9.785,0-18.12-3.533-24.733-10.6
		c-3.805-3.986-6.342-8.244-7.52-12.865c-1.269-4.62-1.812-10.327-1.812-17.213V448.27H204.022z"/>
	<path fill="#1A1A1A" d="M471.915,469.831c-8.244-8.425-18.391-12.593-30.259-12.593s-21.925,4.168-30.259,12.593
		c-8.245,8.426-12.412,18.572-12.412,30.44c0,11.777,4.167,21.925,12.502,30.35c8.335,8.426,18.392,12.684,30.169,12.684
		s21.834-4.258,30.168-12.684c8.335-8.425,12.503-18.572,12.503-30.35C484.327,488.403,480.25,478.257,471.915,469.831
		 M403.425,462.222c10.6-10.51,23.373-15.764,38.322-15.764c14.948,0,27.632,5.254,38.321,15.764
		c10.601,10.6,15.854,23.283,15.854,38.231s-5.345,27.541-15.944,38.05c-10.6,10.419-23.374,15.674-38.322,15.674
		s-27.632-5.255-38.322-15.674c-10.6-10.418-15.945-23.102-15.945-38.05C387.479,485.505,392.825,472.821,403.425,462.222"/>
	<path fill="#1A1A1A" d="M187.171,534.064c-7.882,6.16-16.669,9.331-26.272,9.331c-11.597,0-21.562-4.258-29.806-12.864
		c-8.245-8.517-12.412-18.663-12.412-30.26c0-11.596,4.077-21.652,12.321-30.259c8.244-8.516,18.119-12.864,29.625-12.864
		c9.966,0,18.844,3.08,26.545,9.24v-13.046c-7.792-4.529-16.398-6.885-25.911-6.885c-14.949,0-27.632,5.345-38.322,15.944
		c-10.6,10.6-15.945,23.374-15.945,38.322c0,14.677,5.345,27.27,16.035,37.778c10.69,10.419,23.465,15.674,38.141,15.674
		c9.241,0,17.938-2.355,25.911-6.886v-13.227H187.171z"/>
	<path fill="#1A1A1A" d="M392.281,534.064c-7.882,6.16-16.67,9.331-26.273,9.331c-11.596,0-21.562-4.258-29.806-12.864
		c-8.244-8.517-12.411-18.663-12.411-30.26c0-11.596,4.076-21.652,12.32-30.259c8.244-8.516,18.119-12.864,29.625-12.864
		c9.966,0,18.844,3.08,26.545,9.24v-13.046c-7.791-4.529-16.398-6.885-25.91-6.885c-14.949,0-27.632,5.345-38.322,15.944
		c-10.6,10.6-15.945,23.374-15.945,38.322c0,14.677,5.346,27.27,16.035,37.778c10.69,10.419,23.465,15.674,38.142,15.674
		c9.24,0,17.938-2.355,25.91-6.886v-13.227H392.281z"/>
	<polygon fill="#1A1A1A" points="324.062,448.27 266.262,448.27 266.262,459.051 289.183,459.051 289.183,552.274 300.779,552.274 
		300.779,459.051 324.062,459.051 	"/>
	<polygon fill="#003E6A" points="37.96,434.499 33.521,442.199 70.484,500 33.43,557.801 37.96,565.501 79.906,500 	"/>
	<path fill="#003E6A" d="M41.312,571.39L41.312,571.39L41.312,571.39L41.312,571.39z M45.117,422.087l-3.805,6.523L87.153,500
		l-45.751,71.39l3.805,6.523L95.126,500L45.117,422.087z"/>
	<polygon fill="#003E6A" points="0,500 29.987,551.73 63.146,500 29.987,448.27 	"/>
	<path fill="#1A1A1A" d="M490.85,546.022h0.815c0.997,0,1.812-0.362,1.812-1.178c0-0.725-0.543-1.178-1.63-1.178
		c-0.453,0-0.815,0.091-0.997,0.091V546.022L490.85,546.022z M490.85,550.371h-1.812v-7.791c0.725-0.091,1.721-0.271,2.989-0.271
		c1.449,0,2.084,0.271,2.627,0.634c0.453,0.362,0.816,0.906,0.816,1.631c0,0.906-0.726,1.54-1.631,1.812v0.091
		c0.725,0.272,1.178,0.815,1.358,1.902c0.272,1.178,0.453,1.631,0.544,1.903h-1.902c-0.272-0.272-0.363-0.906-0.635-1.903
		c-0.09-0.815-0.634-1.178-1.631-1.178h-0.815v3.171H490.85z M486.048,546.295c0,3.442,2.628,6.16,6.07,6.16
		c3.353,0.091,5.889-2.718,5.889-6.16c0-3.443-2.536-6.251-5.979-6.251C488.676,540.134,486.048,542.942,486.048,546.295
		 M500,546.295c0,4.349-3.533,7.791-7.882,7.791c-4.439,0-7.973-3.442-7.973-7.791s3.533-7.701,8.063-7.701
		C496.467,538.594,500,541.946,500,546.295"/>
</g>
</svg>
