<?xml version="1.0" encoding="utf-8"?>
<!-- Generator: Adobe Illustrator 15.0.2, SVG Export Plug-In . SVG Version: 6.00 Build 0)  -->
<!DOCTYPE svg PUBLIC "-//W3C//DTD SVG 1.1//EN" "http://www.w3.org/Graphics/SVG/1.1/DTD/svg11.dtd">
<svg version="1.1" id="layer" xmlns="http://www.w3.org/2000/svg" xmlns:xlink="http://www.w3.org/1999/xlink" x="0px" y="0px"
	 width="1199.386px" height="766.872px" viewBox="-101.226 116.717 1199.386 766.872"
	 enable-background="new -101.226 116.717 1199.386 766.872" xml:space="preserve">
<g>
	<path d="M876.994,732.209h-94.479c-19.479-1.688-36.656,12.729-38.344,32.055c-0.154,1.381-0.154,2.607-0.154,3.988v36.043
		c0,19.479,15.799,35.275,35.277,35.429c0.307,0,0.459,0,0.766,0h94.48c19.479,0,35.275-15.797,35.275-35.274l0,0v-36.043
		c0.459-19.479-15.031-35.736-34.51-36.043c-0.461,0-1.072,0-1.533,0h3.221V732.209z M880.062,804.448
		c0,1.687-1.381,3.066-3.066,3.066h-94.48c-1.533,0.92-3.375,0.308-4.141-1.073c-0.154-0.308-0.307-0.768-0.461-1.228v-36.81
		c0-2.301,1.535-3.067,3.834-3.067h94.479c1.535,0,3.068,0,3.068,3.067v36.043L880.062,804.448L880.062,804.448z M718.712,765.951
		c-1.535-1.534-3.068-1.534-3.836,0l-10.736,17.638c-0.766,1.381-0.766,3.221,0,4.603l10.736,18.403h3.068l10.734-18.403
		c0.77-1.382,0.77-3.222,0-4.603l-10.734-17.638 M1063.65,732.209H931.441v151.38h32.209v-43.865h99.848
		c19.172-0.46,34.508-16.104,34.508-35.274v-36.043C1098.773,748.773,1083.283,732.669,1063.65,732.209L1063.65,732.209z
		 M1065.951,804.448c0,1.687-1.229,3.066-2.914,3.221c-0.307,0-0.613,0-0.92-0.153h-99.848v-41.563h99.848
		c1.535,0,3.066,0,3.066,3.066v36.196L1065.951,804.448z M984.509,699.233h90.645c12.115,0,22.238-9.356,23.006-21.474V404.908
		h-113.65V699.233 M346.779,768.252v36.043c0,19.479,15.797,35.275,35.274,35.429c0.309,0,0.461,0,0.769,0H500.46v-32.976H382.822
		c-1.074-0.307-1.994-1.227-2.301-2.3v-36.043c0-2.302,0-3.067,3.066-3.067h117.638v-32.976H382.822
		c-19.479,0-35.276,15.797-35.431,35.274c0,0.308,0,0.46,0,0.769 M724.08,699.233h215.184V637.73H813.191v-53.836h126.072v-63.036
		H813.191v-53.834h126.072v-61.503H701.074v270.552C701.074,688.804,711.349,699.233,724.08,699.233"/>
	<path d="M347.546,497.086v202.147h113.65v-76.842h34.509l53.835,76.842h125.307l-64.57-95.246l44.633-44.632V405.675H542.024
		l-80.676,40.03v-29.141c0-6.136-5.368-11.504-12.27-11.504h-30.675l175.92-235.89l211.349,188.19l107.516-117.637l138.344,117.638
		h46.166L913.037,194.325L790.031,296.473L608.742,138.19l-23.005-21.473L206.135,494.785l-43.711-89.877h36.043L87.117,194.325
		L-22.086,404.908h34.663L-61.196,553.22h46.166l-86.196,178.222l408.743,107.516L226.84,656.901l120.706-161.351V497.086z
		 M461.196,510.123l80.675-41.564v84.51h-80.675C461.196,553.221,461.196,510.123,461.196,510.123z"/>
	<path d="M651.841,732.209h-96.779c-19.173,0.767-34.202,16.871-33.742,36.043v36.043c0,19.172,15.337,34.969,34.509,35.275h96.012
		c19.172-0.46,34.51-16.104,34.51-35.275v-36.043C686.81,748.773,671.32,732.669,651.841,732.209c-0.309,0-0.461,0-0.768,0H651.841z
		 M654.14,804.448c0,1.687-1.379,3.066-3.066,3.066l0,0h-96.012c-1.381,0-2.761-0.921-3.066-2.301v-36.81
		c0-2.302,2.301-3.067,3.834-3.067h96.012c0,0,2.301,0,2.301,3.067C654.14,768.252,654.14,804.448,654.14,804.448z"/>
</g>
</svg>
