<?xml version="1.0" encoding="utf-8"?>
<!-- Generator: Adobe Illustrator 15.0.2, SVG Export Plug-In . SVG Version: 6.00 Build 0)  -->
<!DOCTYPE svg PUBLIC "-//W3C//DTD SVG 1.1//EN" "http://www.w3.org/Graphics/SVG/1.1/DTD/svg11.dtd">
<svg version="1.1"
	 id="svg1936" sodipodi:docname="Amazon MP3.svg" inkscape:version="0.91 r13725" xmlns:inkscape="http://www.inkscape.org/namespaces/inkscape" xmlns:sodipodi="http://sodipodi.sourceforge.net/DTD/sodipodi-0.dtd" xmlns:svg="http://www.w3.org/2000/svg" xmlns:rdf="http://www.w3.org/1999/02/22-rdf-syntax-ns#" xmlns:cc="http://creativecommons.org/ns#" xmlns:dc="http://purl.org/dc/elements/1.1/"
	 xmlns="http://www.w3.org/2000/svg" xmlns:xlink="http://www.w3.org/1999/xlink" x="0px" y="0px" width="602.279px"
	 height="181.499px" viewBox="0 110.253 602.279 181.499" enable-background="new 0 110.253 602.279 181.499" xml:space="preserve">
<sodipodi:namedview  id="namedview6647" guidetolerance="10" inkscape:pageopacity="0" bordercolor="#666666" pagecolor="#ffffff" objecttolerance="10" gridtolerance="10" borderopacity="1" inkscape:window-y="-8" inkscape:window-width="1366" inkscape:zoom="0.84997097" inkscape:cy="177.19815" fit-margin-left="0" fit-margin-top="0" inkscape:window-x="-8" inkscape:pageshadow="2" showgrid="false" fit-margin-bottom="0" fit-margin-right="0" inkscape:window-height="705" inkscape:window-maximized="1" inkscape:cx="487.0018" inkscape:current-layer="g1967">
	</sodipodi:namedview>
<g id="layer1" transform="translate(144.53434,-539.62422)">
	<g id="g1967" transform="translate(7.081691,7.081144)">
		<path id="path8" inkscape:connector-curvature="0" d="M222.027,784.734c-35,25.798-85.729,39.562-129.406,39.562
			c-61.243,0-116.377-22.651-158.088-60.325c-3.277-2.962-0.341-7,3.592-4.692c45.014,26.19,100.673,41.947,158.166,41.947
			c38.775,0,81.43-8.022,120.65-24.671C222.865,774.038,227.82,780.435,222.027,784.734"/>
		<path id="path10" inkscape:connector-curvature="0" d="M236.577,768.087c-4.457-5.716-29.573-2.701-40.847-1.363
			c-3.435,0.419-3.958-2.57-0.865-4.72c20.004-14.079,52.827-10.015,56.655-5.296c3.827,4.745-0.996,37.647-19.794,53.352
			c-2.884,2.412-5.637,1.127-4.353-2.071C231.596,797.449,241.06,773.827,236.577,768.087"/>
		<path id="path12" inkscape:connector-curvature="0" d="M196.518,662.616v-13.685c0-2.071,1.573-3.46,3.46-3.46h61.27
			c1.966,0,3.539,1.416,3.539,3.46v11.719c-0.026,1.966-1.678,4.536-4.614,8.599l-31.749,45.329
			c11.798-0.288,24.251,1.469,34.947,7.498c2.412,1.363,3.067,3.356,3.251,5.322v14.604c0,1.992-2.202,4.325-4.509,3.119
			c-18.851-9.884-43.888-10.959-64.73,0.105c-2.124,1.153-4.353-1.154-4.353-3.146V728.21c0-2.229,0.026-6.029,2.255-9.411
			l36.782-52.749h-32.011C198.09,666.05,196.518,664.661,196.518,662.616"/>
		<path id="path14" inkscape:connector-curvature="0" d="M-26.981,748.004h-18.64c-1.783-0.131-3.198-1.468-3.33-3.172v-95.666
			c0-1.914,1.6-3.434,3.592-3.434h17.382c1.809,0.078,3.251,1.468,3.382,3.198v12.505h0.341
			c4.536-12.086,13.056-17.723,24.539-17.723c11.667,0,18.955,5.637,24.198,17.723c4.509-12.086,14.76-17.723,25.745-17.723
			c7.812,0,16.359,3.225,21.576,10.46c5.899,8.049,4.693,19.741,4.693,29.992l-0.026,60.378c0,1.913-1.599,3.46-3.591,3.46H54.265
			c-1.861-0.131-3.355-1.626-3.355-3.46V693.84c0-4.037,0.367-14.104-0.524-17.932c-1.39-6.423-5.558-8.232-10.959-8.232
			c-4.509,0-9.228,3.015-11.142,7.839c-1.914,4.824-1.73,12.898-1.73,18.325v50.704c0,1.913-1.6,3.46-3.592,3.46H4.348
			c-1.888-0.131-3.355-1.626-3.355-3.46L0.966,693.84c0-10.67,1.756-26.374-11.483-26.374c-13.397,0-12.873,15.311-12.873,26.374
			v50.704C-23.389,746.457-24.989,748.004-26.981,748.004"/>
		<path id="path16" inkscape:connector-curvature="0" d="M317.534,643.714c27.659,0,42.629,23.752,42.629,53.955
			c0,29.179-16.543,52.329-42.629,52.329c-27.16,0-41.947-23.753-41.947-53.352C275.587,666.863,290.558,643.714,317.534,643.714
			 M317.692,663.245c-13.737,0-14.603,18.719-14.603,30.385c0,11.693-0.184,36.651,14.445,36.651
			c14.445,0,15.127-20.134,15.127-32.403c0-8.075-0.341-17.723-2.779-25.378C327.785,665.84,323.616,663.245,317.692,663.245"/>
		<path id="path18" inkscape:connector-curvature="0" d="M396.028,748.004h-18.562c-1.861-0.131-3.355-1.625-3.355-3.46
			l-0.026-95.692c0.157-1.756,1.704-3.12,3.592-3.12h17.276c1.626,0.078,2.963,1.18,3.33,2.674v14.629h0.341
			c5.217-13.082,12.531-19.322,25.404-19.322c8.362,0,16.517,3.015,21.76,11.273c4.876,7.655,4.876,20.528,4.876,29.782v60.221
			c-0.209,1.678-1.756,3.015-3.592,3.015h-18.692c-1.704-0.131-3.12-1.39-3.304-3.015v-51.962c0-10.46,1.206-25.771-11.666-25.771
			c-4.535,0-8.704,3.041-10.775,7.655c-2.621,5.846-2.962,11.667-2.962,18.116v51.517
			C399.646,746.457,398.02,748.004,396.028,748.004"/>
		<path d="M180.866,730.466c-3.408-4.72-7.026-8.547-7.026-17.277V684.14c0-12.295,0.865-23.595-8.206-32.063
			c-7.157-6.869-19.007-9.281-28.078-9.281c-17.723,0-37.542,6.606-41.685,28.524c-0.445,2.333,1.259,3.565,2.779,3.906l18.063,1.94
			c1.704-0.079,2.936-1.73,3.25-3.408c1.547-7.55,7.865-11.194,14.97-11.194c3.854,0,8.206,1.416,10.46,4.85
			c2.622,3.828,2.281,9.071,2.281,13.501v2.412c-10.801,1.232-24.932,2.019-35.052,6.476c-11.693,5.034-19.873,15.337-19.873,30.464
			c0,19.375,12.191,29.049,27.895,29.049c13.24,0,20.502-3.12,30.727-13.555c3.382,4.902,4.509,7.289,10.696,12.427
			c1.39,0.734,3.172,0.655,4.404-0.445l0.026,0.052c3.723-3.303,10.486-9.201,14.288-12.374
			C182.308,734.161,182.046,732.144,180.866,730.466z M144.189,722.075c-2.962,5.244-7.682,8.469-12.899,8.469
			c-7.157,0-11.352-5.453-11.352-13.502c0-15.887,14.236-18.771,27.737-18.771v4.037
			C147.675,709.57,147.859,715.626,144.189,722.075z"/>
		<path d="M-63.501,730.466c-3.408-4.72-7.026-8.547-7.026-17.277V684.14c0-12.295,0.865-23.595-8.206-32.063
			c-7.157-6.869-19.007-9.281-28.078-9.281c-17.723,0-37.517,6.606-41.685,28.524c-0.419,2.333,1.259,3.565,2.779,3.906l18.089,1.94
			c1.678-0.079,2.91-1.73,3.225-3.408c1.547-7.55,7.892-11.194,14.996-11.194c3.828,0,8.18,1.416,10.46,4.85
			c2.596,3.828,2.255,9.071,2.255,13.501v2.412c-10.801,1.232-24.932,2.019-35.052,6.476c-11.667,5.034-19.873,15.337-19.873,30.464
			c0,19.375,12.217,29.049,27.895,29.049c13.266,0,20.502-3.12,30.727-13.555c3.408,4.902,4.509,7.289,10.696,12.427
			c1.39,0.734,3.172,0.655,4.404-0.445l0.053,0.052c3.723-3.303,10.486-9.201,14.288-12.374
			C-62.033,734.161-62.295,732.144-63.501,730.466z M-100.179,722.075c-2.962,5.244-7.655,8.469-12.899,8.469
			c-7.157,0-11.326-5.453-11.326-13.502c0-15.887,14.236-18.771,27.711-18.771v4.037C-96.692,709.57-96.508,715.626-100.179,722.075
			z"/>
	</g>
</g>
</svg>
